<svg width="16" height="16" viewBox="0 0 16 16" fill="none" xmlns="http://www.w3.org/2000/svg">
<g clip-path="url(#clip0_3415_48489)">
<path d="M9.9974 1.3335H3.9974C3.26406 1.3335 2.66406 1.9335 2.66406 2.66683V13.3335C2.66406 14.0668 3.26406 14.6668 3.9974 14.6668H11.9974C12.7307 14.6668 13.3307 14.0668 13.3307 13.3335V4.66683L9.9974 1.3335ZM3.9974 13.3335V2.66683H9.33073V5.3335H11.9974V13.3335H3.9974ZM10.6641 6.66683V10.0002C10.6641 11.4735 9.47073 12.6668 7.9974 12.6668C6.52406 12.6668 5.33073 11.4735 5.33073 10.0002V5.66683C5.33073 4.68683 6.17073 3.90683 7.17073 4.00683C8.0374 4.0935 8.66406 4.88683 8.66406 5.76016V10.0002H7.33073V5.66683C7.33073 5.48016 7.18406 5.3335 6.9974 5.3335C6.81073 5.3335 6.66406 5.48016 6.66406 5.66683V10.0002C6.66406 10.7335 7.26406 11.3335 7.9974 11.3335C8.73073 11.3335 9.33073 10.7335 9.33073 10.0002V6.66683H10.6641Z" fill="#1D242B"/>
</g>
<defs>
<clipPath id="clip0_3415_48489">
<rect width="16" height="16" fill="white"/>
</clipPath>
</defs>
</svg>
