<svg width="161" height="25" viewBox="0 0 161 25" fill="none" xmlns="http://www.w3.org/2000/svg">
<path d="M20.644 25H3.976C3.544 25 3.04 24.688 2.464 24.064L0.952 22.408C0.544 21.976 0.34 21.46 0.34 20.86V1.78C0.34 0.939999 0.76 0.52 1.6 0.52H4.624C5.464 0.52 5.884 0.939999 5.884 1.78V19.96H18.736V1.78C18.736 0.939999 19.156 0.52 19.996 0.52H23.02C23.86 0.52 24.28 0.939999 24.28 1.78V20.86C24.28 21.46 24.076 21.976 23.668 22.408L22.156 24.064C21.58 24.688 21.076 25 20.644 25ZM45.1572 25H29.8572C29.0172 25 28.5972 24.58 28.5972 23.74V21.184C28.5972 20.56 28.8372 20.044 29.3172 19.636L39.6492 11.068C39.8652 10.876 39.9732 10.696 39.9732 10.528V10.24C39.9732 10.072 39.8892 9.964 39.7212 9.916C39.5532 9.868 39.3972 9.904 39.2532 10.024L38.2812 10.816C37.9692 11.08 37.3212 11.212 36.3372 11.212H29.9652C29.1252 11.212 28.7052 10.792 28.7052 9.952V7.72C28.7052 6.88 29.1252 6.46 29.9652 6.46H44.6532C45.4932 6.46 45.9132 6.88 45.9132 7.72V10.276C45.9132 10.9 45.6732 11.416 45.1932 11.824L34.6812 20.392C34.4652 20.584 34.3572 20.764 34.3572 20.932V21.22C34.3572 21.388 34.4412 21.496 34.6092 21.544C34.7772 21.592 34.9332 21.556 35.0772 21.436L36.0492 20.644C36.3612 20.38 37.0092 20.248 37.9932 20.248H45.1572C45.9972 20.248 46.4172 20.668 46.4172 21.508V23.74C46.4172 24.58 45.9972 25 45.1572 25ZM71.4901 25H57.5581C56.8861 25 56.3941 24.724 56.0821 24.172L50.0701 13.624C49.7581 13.048 49.7581 12.484 50.0701 11.932L56.1181 1.384C56.4541 0.808 56.9461 0.52 57.5941 0.52H71.4901C72.3061 0.52 72.7141 0.927999 72.7141 1.744V4.336C72.7141 5.152 72.3061 5.56 71.4901 5.56H59.7901L55.6501 12.76L59.7901 19.96H71.4901C72.3061 19.96 72.7141 20.368 72.7141 21.184V23.776C72.7141 24.592 72.3061 25 71.4901 25ZM90.7042 25H84.6202C84.1882 25 83.6842 24.688 83.1082 24.064L81.5962 22.408C81.1882 21.976 80.9842 21.46 80.9842 20.86V5.344H76.6642C75.8242 5.344 75.4042 4.924 75.4042 4.084V1.78C75.4042 0.939999 75.8242 0.52 76.6642 0.52H84.9802C85.8202 0.52 86.2402 0.939999 86.2402 1.78V20.176H90.7042C91.5442 20.176 91.9642 20.596 91.9642 21.436V23.74C91.9642 24.58 91.5442 25 90.7042 25ZM108.6 25H99.4564C98.7604 25 98.2564 24.712 97.9444 24.136L93.6604 16.576C93.3244 16 93.3244 15.424 93.6604 14.848L97.9444 7.324C98.2564 6.748 98.7604 6.46 99.4564 6.46H108.6C109.296 6.46 109.8 6.748 110.112 7.324L114.396 14.848C114.732 15.424 114.732 16 114.396 16.576L110.112 24.136C109.8 24.712 109.296 25 108.6 25ZM98.8084 15.712L101.364 20.248H106.692L109.248 15.712L106.692 11.212H101.364L98.8084 15.712ZM133.158 6.46H135.894C136.734 6.46 137.154 6.88 137.154 7.72V23.74C137.154 24.58 136.734 25 135.894 25H133.158C132.318 25 131.898 24.58 131.898 23.74V22.948C131.898 22.708 131.778 22.588 131.538 22.588H131.07C130.902 22.588 130.758 22.66 130.638 22.804L129.45 24.208C128.994 24.736 128.49 25 127.938 25H121.89C121.458 25 120.954 24.688 120.378 24.064L118.866 22.408C118.458 21.976 118.254 21.46 118.254 20.86V7.72C118.254 6.88 118.674 6.46 119.514 6.46H122.25C123.09 6.46 123.51 6.88 123.51 7.72V20.176H131.538C131.778 20.176 131.898 20.056 131.898 19.816V7.72C131.898 6.88 132.318 6.46 133.158 6.46ZM151.132 25H146.812C146.116 25 145.612 24.712 145.3 24.136L141.016 16.576C140.68 16 140.68 15.424 141.016 14.848L145.3 7.324C145.612 6.748 146.116 6.46 146.812 6.46H155.668V1.78C155.668 0.939999 156.088 0.52 156.928 0.52H159.664C160.504 0.52 160.924 0.939999 160.924 1.78V23.74C160.924 24.58 160.504 25 159.664 25H157.54C157.108 25 156.604 24.688 156.028 24.064L154.876 22.768C154.78 22.648 154.636 22.588 154.444 22.588H154.228C154.036 22.588 153.892 22.648 153.796 22.768L152.644 24.064C152.068 24.688 151.564 25 151.132 25ZM146.164 15.712L148.72 20.248H155.668V11.212H148.72L146.164 15.712Z" fill="rgb(22 78 99)"/>
</svg>
