<svg width="235" height="51" viewBox="0 0 235 51" fill="none" xmlns="http://www.w3.org/2000/svg">
<path fill-rule="evenodd" clip-rule="evenodd" d="M0 15.2017C2.13032 15.7316 3.69159 17.4148 3.69159 19.4045C3.69159 21.3937 2.13033 23.0762 0.000443908 23.606C1.4859 22.6425 2.44769 21.1179 2.44769 19.4045C2.44769 17.6899 1.48589 16.1653 0 15.2017ZM1.81428 12.9747C5.96781 12.9747 9.33587 15.8544 9.33587 19.4041C9.33587 22.9545 5.96781 25.8342 1.81428 25.8342C1.5022 25.8342 1.19365 25.8168 0.89171 25.7852C4.60886 25.3959 7.48985 22.6885 7.48985 19.4041C7.48985 16.1201 4.60887 13.4126 0.891272 13.023C1.19365 12.9913 1.5022 12.9747 1.81428 12.9747ZM4.45195 9.25247C11.0095 9.25247 16.3272 13.7992 16.3272 19.4041C16.3272 25.0097 11.0095 29.5561 4.45195 29.5561C3.95959 29.5561 3.47296 29.5297 2.99559 29.4777C8.86643 28.8635 13.4114 24.5877 13.4114 19.4041C13.4114 14.2209 8.86643 9.94356 2.99559 9.32934C3.47296 9.27885 3.95959 9.25247 4.45195 9.25247Z" fill="#174880"/>
<path fill-rule="evenodd" clip-rule="evenodd" d="M21.3228 0.734375C33.3814 0.734375 43.1612 9.09494 43.1612 19.4041C43.1612 29.7132 33.3814 38.0737 21.3228 38.0737C20.4148 38.0737 19.5213 38.0248 18.642 37.9332C29.4373 36.8027 37.7994 28.9369 37.7994 19.4041C37.7994 9.8712 29.4373 2.00427 18.642 0.873798C19.5213 0.78223 20.4148 0.734375 21.3228 0.734375ZM8.2601 5.75478C17.0763 5.75478 24.2258 11.8668 24.2258 19.4041C24.2258 26.9413 17.0763 33.0541 8.2601 33.0541C7.59716 33.0541 6.94347 33.0172 6.30168 32.949C14.1931 32.1237 20.3064 26.3734 20.3064 19.4041C20.3064 12.4343 14.1931 6.68403 6.30168 5.85803C6.95143 5.78965 7.60545 5.75517 8.2601 5.75478ZM13.6077 2.71985C24.3858 2.71985 33.1244 10.1915 33.1244 19.4041C33.1244 28.617 24.3858 36.089 13.6077 36.089C12.798 36.089 11.9989 36.0438 11.2129 35.9616C20.8609 34.9518 28.3335 27.924 28.3335 19.4041C28.3335 10.8841 20.8609 3.85597 11.2129 2.84534C11.9984 2.76319 12.798 2.71985 13.6077 2.71985Z" fill="#174880"/>
<path d="M60.034 10.732V20.566C60.034 24.262 61.838 26 65.688 26H72.398C76.336 26 77.854 24.592 77.854 20.566V10.732H74.202V20.192C74.202 22.282 73.344 22.964 71.54 22.964H66.502C64.544 22.964 63.686 22.326 63.686 20.214V10.732H60.034ZM79.5147 10.732V13.768H91.2847L79.5147 23.008V26H96.6747V22.964H85.3227L96.6747 13.812V10.732H79.5147ZM98.5713 10.732V13.768H104.951V26H108.603V13.768H115.049V10.732H98.5713ZM116.871 26H132.469V23.118H120.523V19.62H132.095V16.958H120.523V13.614H132.469V10.732H116.871V26ZM135.043 26H148.133V22.964H138.695V10.732H135.043V26ZM150.687 26H166.285V23.118H154.339V19.62H165.911V16.958H154.339V13.614H166.285V10.732H150.687V26ZM182.851 20.72C182.851 22.568 182.103 22.964 179.925 22.964H175.239C173.149 22.964 172.291 22.524 172.291 20.192V16.408C172.291 14.01 172.797 13.592 175.239 13.592H179.925C182.037 13.592 182.851 14.274 182.851 15.88H186.503C186.503 11.59 184.237 10.556 180.629 10.556H174.557C170.069 10.556 168.639 11.81 168.639 16.276V20.61C168.639 24.702 169.981 26 174.205 26H181.003C185.513 26 186.503 24.79 186.525 20.72H182.851ZM192.447 20.412V16.342C192.447 14.164 193.085 13.592 195.373 13.592H200.081C202.259 13.592 203.007 14.098 203.007 16.32V20.39C203.007 22.458 202.479 22.964 200.147 22.964H195.307C193.085 22.964 192.447 22.414 192.447 20.412ZM206.659 20.786V15.99C206.659 11.7 204.921 10.556 201.137 10.556H194.427C190.269 10.556 188.795 11.81 188.795 15.99V20.786C188.795 24.482 190.335 26 194.427 26H201.137C205.405 26 206.659 24.592 206.659 20.786ZM209.277 10.732V26H212.929V13.768H213.413L218.649 26H223.841L229.077 13.768H229.561V26H233.213V10.732H226.415L221.355 22.964H221.135L216.075 10.732H209.277Z" fill="#174880"/>
<path d="M174.136 42.16C174.136 43.504 173.592 43.792 172.008 43.792H168.6C167.08 43.792 166.456 43.472 166.456 41.776V39.024C166.456 37.28 166.824 36.976 168.6 36.976H172.008C173.544 36.976 174.136 37.472 174.136 38.64H176.792C176.792 35.52 175.144 34.768 172.52 34.768H168.104C164.84 34.768 163.8 35.68 163.8 38.928V42.08C163.8 45.056 164.776 46 167.848 46H172.792C176.072 46 176.792 45.12 176.808 42.16H174.136ZM178.523 46H188.043V43.792H181.179V34.896H178.523V46ZM192.365 41.936V38.976C192.365 37.392 192.829 36.976 194.493 36.976H197.917C199.501 36.976 200.045 37.344 200.045 38.96V41.92C200.045 43.424 199.661 43.792 197.965 43.792H194.445C192.829 43.792 192.365 43.392 192.365 41.936ZM202.701 42.208V38.72C202.701 35.6 201.437 34.768 198.685 34.768H193.805C190.781 34.768 189.709 35.68 189.709 38.72V42.208C189.709 44.896 190.829 46 193.805 46H198.685C201.789 46 202.701 44.976 202.701 42.208ZM204.221 34.896V42.048C204.221 44.736 205.533 46 208.333 46H213.213C216.077 46 217.181 44.976 217.181 42.048V34.896H214.525V41.776C214.525 43.296 213.901 43.792 212.589 43.792H208.925C207.501 43.792 206.877 43.328 206.877 41.792V34.896H204.221ZM221.445 43.792V37.104H226.229C228.165 37.104 228.645 37.744 228.645 38.992V41.904C228.645 43.232 228.213 43.792 226.229 43.792H221.445ZM218.789 34.896V46H227.381C230.245 46 231.301 44.768 231.301 41.888V38.944C231.301 36.016 230.085 34.896 227.365 34.896H218.789Z" fill="#174880"/>
</svg>
